<svg width="200" height="200" viewBox="0 0 200 200" xmlns="http://www.w3.org/2000/svg">
  <!-- White version for dark backgrounds -->

  <!-- QR Corner Elements -->
  <rect x="25" y="25" width="35" height="35" rx="8" fill="white" opacity="0.25"/>
  <circle cx="42.5" cy="42.5" r="6" fill="white"/>

  <rect x="140" y="25" width="35" height="35" rx="8" fill="white" opacity="0.25"/>
  <circle cx="157.5" cy="42.5" r="6" fill="white"/>

  <rect x="25" y="140" width="35" height="35" rx="8" fill="white" opacity="0.25"/>
  <circle cx="42.5" cy="157.5" r="6" fill="white"/>

  <!-- Center QR Dots -->
  <circle cx="100" cy="100" r="12" fill="white" opacity="0.6"/>
  <circle cx="75" cy="75" r="5" fill="white" opacity="0.8"/>
  <circle cx="125" cy="75" r="5" fill="white" opacity="0.8"/>
  <circle cx="75" cy="125" r="5" fill="white" opacity="0.8"/>
  <circle cx="125" cy="125" r="5" fill="white" opacity="0.8"/>

  <!-- Return Arrow -->
  <path d="M150 150 Q120 150 105 130 Q90 110 95 85 Q100 60 75 75"
        stroke="white" stroke-width="8" fill="none" stroke-linecap="round" stroke-linejoin="round"/>
  <polygon points="60,60 80,75 70,95" fill="white"/>

  <!-- Bottom Right QR dot -->
  <circle cx="157.5" cy="157.5" r="6" fill="white" opacity="0.4"/>
</svg>
